<svg xmlns="http://www.w3.org/2000/svg" viewBox="0 0 155.63 96.31"><defs><style>.cls-1{fill:#01a3fa;}</style></defs><title>Ad</title><g id="Layer_2" data-name="Layer 2"><g id="Layer_1-2" data-name="Layer 1"><path class="cls-1" d="M72.82,94.3A10.71,10.71,0,0,1,62.7,87.08l-5-14.35h-32L20.84,87.08A10.71,10.71,0,1,1,.68,79.82L26.77,10.39a16,16,0,0,1,30,0L82.85,79.82a10.72,10.72,0,0,1-10,14.48ZM22.94,68.73H60.6l5.88,17a6.71,6.71,0,0,0,6.34,4.53,6.72,6.72,0,0,0,6.29-9.08L53,11.79a12,12,0,0,0-22.51,0L4.43,81.22a6.71,6.71,0,0,0,6.28,9.08,6.73,6.73,0,0,0,6.35-4.53ZM56.46,57.09H27.07l9-25.19,3.69-12.35h4L47.45,31.9Zm-23.71-4h18l-7.15-20-1.86-6.24-1.9,6.34Z"/><path class="cls-1" d="M118.19,96.31a28.72,28.72,0,0,1-12.12-2.64A32.27,32.27,0,0,1,96,86.42a34.44,34.44,0,0,1-6.9-11,37.9,37.9,0,0,1-2.54-14,37.9,37.9,0,0,1,2.54-14,34.44,34.44,0,0,1,6.9-11,32.43,32.43,0,0,1,10.08-7.25,28.77,28.77,0,0,1,12.12-2.65,25.44,25.44,0,0,1,12.86,3.05,24.46,24.46,0,0,1,4.47,3.28l-.41-3.7V10.26a10.26,10.26,0,1,1,20.52,0v74.6a9.46,9.46,0,0,1-9.44,9.44h-.63a9.46,9.46,0,0,1-8.68-5.72,22.65,22.65,0,0,1-5.83,4.69A25.44,25.44,0,0,1,118.19,96.31Zm0-65.83a24.89,24.89,0,0,0-10.45,2.28,28.44,28.44,0,0,0-8.84,6.36,30.41,30.41,0,0,0-6.09,9.77A33.82,33.82,0,0,0,90.55,61.4a33.82,33.82,0,0,0,2.26,12.51,30.36,30.36,0,0,0,6.09,9.76A28.26,28.26,0,0,0,107.74,90a24.88,24.88,0,0,0,10.45,2.27A21.5,21.5,0,0,0,129,89.81a16.82,16.82,0,0,0,6.34-6l.58-1h4.16v2a5.45,5.45,0,0,0,5.44,5.44h.63a5.45,5.45,0,0,0,5.44-5.44V10.26a6.26,6.26,0,1,0-12.52,0V29l1.25,10.94H136l-.58-1A16.82,16.82,0,0,0,129,33,21.5,21.5,0,0,0,118.19,30.48Zm3.41,50.58a17.88,17.88,0,0,1-7-1.42,18.55,18.55,0,0,1-5.86-4,19.2,19.2,0,0,1-4.09-6.19,22,22,0,0,1,0-16.19,19.32,19.32,0,0,1,4.09-6.18,18.25,18.25,0,0,1,19.88-4,17.68,17.68,0,0,1,5.9,3.91,19.24,19.24,0,0,1,4.08,6.18,20.91,20.91,0,0,1,1.55,8.22,20.91,20.91,0,0,1-1.55,8.22,19.24,19.24,0,0,1-4.08,6.18,17.68,17.68,0,0,1-5.9,3.91A18.59,18.59,0,0,1,121.6,81.06Zm0-35.32a13.7,13.7,0,0,0-5.46,1.11,14.57,14.57,0,0,0-4.61,3.1,15.42,15.42,0,0,0-3.23,4.91,18.11,18.11,0,0,0,0,13.07,15.47,15.47,0,0,0,3.23,4.92A14.32,14.32,0,0,0,127.09,76a13.69,13.69,0,0,0,4.57-3,15.47,15.47,0,0,0,3.23-4.92,18.65,18.65,0,0,0,0-13.32,15.47,15.47,0,0,0-3.23-4.92,13.77,13.77,0,0,0-4.57-3A14.77,14.77,0,0,0,121.6,45.74Z"/></g></g></svg>