<svg xmlns="http://www.w3.org/2000/svg" viewBox="0 0 140.96 165.38"><defs><style>.cls-1{fill:#01a3fa;}</style></defs><title>Content Marketing</title><g id="Layer_2" data-name="Layer 2"><g id="Layer_1-2" data-name="Layer 1"><path class="cls-1" d="M55.81,73.17a2.5,2.5,0,0,1-1.93-.92L.56,6.85A2.5,2.5,0,0,1,4.44,3.69l53.31,65.4a2.51,2.51,0,0,1-.36,3.52A2.46,2.46,0,0,1,55.81,73.17Z"/><path class="cls-1" d="M56,73.17H43.44a2.5,2.5,0,0,1,0-5H53.86l1.59-8.89a2.5,2.5,0,1,1,4.92.88l-2,11A2.5,2.5,0,0,1,56,73.17Z"/><path class="cls-1" d="M138.46,165.38H5.22a2.5,2.5,0,0,1,0-5H136V2.5a2.5,2.5,0,0,1,5,0V162.88A2.49,2.49,0,0,1,138.46,165.38Z"/><path class="cls-1" d="M116.47,99.42H36.67a2.5,2.5,0,0,1,0-5h79.8a2.5,2.5,0,0,1,0,5Z"/><path class="cls-1" d="M116.47,112.72H10.07a2.5,2.5,0,1,1,0-5h106.4a2.5,2.5,0,0,1,0,5Z"/><path class="cls-1" d="M116.47,126H53a2.5,2.5,0,0,1,0-5h63.44a2.5,2.5,0,0,1,0,5Z"/><path class="cls-1" d="M116.47,139.32H16.17a2.5,2.5,0,0,1,0-5h100.3a2.5,2.5,0,0,1,0,5Z"/></g></g></svg>