<svg xmlns="http://www.w3.org/2000/svg" viewBox="0 0 132 132"><defs><style>.cls-1{fill:#01a3fa;}</style></defs><title>Product Branding</title><g id="Layer_2" data-name="Layer 2"><g id="Layer_1-2" data-name="Layer 1"><path class="cls-1" d="M46.2,44a17.49,17.49,0,0,0-5-12.22A13.18,13.18,0,0,1,54,33.31a2.21,2.21,0,0,0,2.91-.19v0a2.19,2.19,0,0,0-.25-3.29,17.54,17.54,0,0,0-19.22-1A17.57,17.57,0,0,0,11,44v8.8H2.2A2.19,2.19,0,0,0,0,55v74.8A2.19,2.19,0,0,0,2.2,132h44a2.19,2.19,0,0,0,2.2-2.2h0a2.19,2.19,0,0,0-2.2-2.2H22V57.2h6.6v6.6A2.19,2.19,0,0,0,30.8,66h0A2.19,2.19,0,0,0,33,63.8V57.2H46.2A2.19,2.19,0,0,0,48.4,55h0a2.19,2.19,0,0,0-2.2-2.2h0ZM12.83,115.38a2.28,2.28,0,0,0-3.66,0L4.4,122.54V62.26l4.77,7.15a2.2,2.2,0,0,0,3.66,0l4.77-7.15v60.28Zm2.86,12.22H6.31l4.69-7ZM11,64.24l-4.69-7h9.38ZM15.4,52.8V44A13.18,13.18,0,0,1,33.57,31.78,17.49,17.49,0,0,0,28.6,44v8.8ZM33,44a13.13,13.13,0,0,1,4.4-9.81A13.13,13.13,0,0,1,41.8,44v8.8H33Z"/><path class="cls-1" d="M70.18,29.58a2.2,2.2,0,0,0,.22-1V15.4a2.19,2.19,0,0,1,2.2-2.2H77a2.19,2.19,0,0,1,2.2,2.2V28.6a2.2,2.2,0,0,0,.22,1L91.64,54a2.2,2.2,0,0,0,3,1h0a2.19,2.19,0,0,0,1-3L83.83,28.55a2.28,2.28,0,0,1-.23-1V4.4A4.4,4.4,0,0,0,79.2,0H70.4A4.4,4.4,0,0,0,66,4.4V27.56a2.28,2.28,0,0,1-.23,1l-12.5,25a4.36,4.36,0,0,0-.47,2V127.6a4.4,4.4,0,0,0,4.4,4.4h11a2.19,2.19,0,0,0,2.2-2.2h0a2.19,2.19,0,0,0-2.2-2.2H59.4a2.19,2.19,0,0,1-2.2-2.2V56a2.28,2.28,0,0,1,.23-1Zm9-23h0A2.19,2.19,0,0,1,77,8.8H72.6a2.19,2.19,0,0,1-2.2-2.2h0a2.19,2.19,0,0,1,2.2-2.2H77A2.19,2.19,0,0,1,79.2,6.6Z"/><path class="cls-1" d="M131.69,84.67l-8.2-14.35a2.17,2.17,0,0,1-.29-1.09V63.8a4.4,4.4,0,0,0-4.4-4.4H88a4.4,4.4,0,0,0-4.4,4.4v5.43a2.17,2.17,0,0,1-.29,1.09L75.09,84.7a2.2,2.2,0,0,0-.29,1.1v41.8a4.4,4.4,0,0,0,4.4,4.4h48.4a4.4,4.4,0,0,0,4.4-4.4V85.8A2.23,2.23,0,0,0,131.69,84.67Zm-9.47-1.07h-2.44a2.2,2.2,0,0,1-1.91-3.29l1.22-2.13a2.2,2.2,0,0,1,3.82,0l1.22,2.13A2.2,2.2,0,0,1,122.22,83.6Zm-32-19.8h26.4a2.19,2.19,0,0,1,2.2,2.2h0a2.19,2.19,0,0,1-2.2,2.2H90.2A2.19,2.19,0,0,1,88,66h0A2.19,2.19,0,0,1,90.2,63.8Zm-1.85,8.8h25.07a2.2,2.2,0,0,1,1.91,3.29l-3.77,6.6a2.19,2.19,0,0,1-1.91,1.11H84.58a2.2,2.2,0,0,1-1.91-3.29l3.77-6.6A2.19,2.19,0,0,1,88.35,72.6Zm19.45,55H81.4a2.19,2.19,0,0,1-2.2-2.2V90.2A2.19,2.19,0,0,1,81.4,88h26.4a2.19,2.19,0,0,1,2.2,2.2v35.2A2.19,2.19,0,0,1,107.8,127.6Zm17.6,0h-8.8a2.19,2.19,0,0,1-2.2-2.2V90.2a2.19,2.19,0,0,1,2.2-2.2h8.8a2.19,2.19,0,0,1,2.2,2.2v35.2A2.19,2.19,0,0,1,125.4,127.6Z"/></g></g></svg>