<svg xmlns="http://www.w3.org/2000/svg" viewBox="0 0 210.38 116.52"><defs><style>.cls-1{fill:#01a3fa;}.cls-2{fill:none;stroke:#01a3fa;stroke-linecap:round;stroke-linejoin:round;stroke-width:7px;}</style></defs><title>Search Ads</title><g id="Layer_2" data-name="Layer 2"><g id="Layer_1-2" data-name="Layer 1"><path class="cls-1" d="M61.67,29.84A23.89,23.89,0,1,0,85.56,53.73,23.91,23.91,0,0,0,61.67,29.84Zm0,41A17.07,17.07,0,1,1,78.74,53.73,17.09,17.09,0,0,1,61.67,70.8Z"/><path class="cls-1" d="M101.63,88.86,79.44,66.68a3.41,3.41,0,0,0-4.82,4.82L96.81,93.69a3.4,3.4,0,0,0,4.82,0A3.42,3.42,0,0,0,101.63,88.86Z"/><path class="cls-2" d="M206.88,113H58.26A54.92,54.92,0,0,1,3.5,58.26h0A54.92,54.92,0,0,1,58.26,3.5"/></g></g></svg>