<svg xmlns="http://www.w3.org/2000/svg" viewBox="0 0 149.48 134.38"><defs><style>.cls-1{fill:#01a3fa;}</style></defs><title>Email Marketing</title><g id="Layer_2" data-name="Layer 2"><g id="Layer_1-2" data-name="Layer 1"><path class="cls-1" d="M149.48,54.37v63.57A16.47,16.47,0,0,1,133,134.38H16.44A16.46,16.46,0,0,1,0,117.94V36.07A16.45,16.45,0,0,1,16.44,19.63H88.73a2.8,2.8,0,0,1,0,5.59H16.44A10.86,10.86,0,0,0,5.58,36.07v8.32l63.88,31a12,12,0,0,0,10.56,0l31.21-15.14a2.79,2.79,0,1,1,2.44,5L82.46,80.44a17.55,17.55,0,0,1-15.44,0L5.58,50.6v67.34a10.87,10.87,0,0,0,10.86,10.85H133a10.87,10.87,0,0,0,10.85-10.85V54.37a2.8,2.8,0,0,1,5.59,0Z"/><path class="cls-1" d="M43.61,86.81,16.4,114a2.79,2.79,0,1,0,4,3.94L47.56,90.76a2.79,2.79,0,1,0-4-4Z"/><path class="cls-1" d="M101.91,86.81a2.79,2.79,0,0,0,0,4L129.13,118a2.75,2.75,0,0,0,2,.82,2.79,2.79,0,0,0,2-4.76L105.86,86.81a2.79,2.79,0,0,0-4,0Z"/><path class="cls-1" d="M123.72,44.89a22.45,22.45,0,1,1,22.44-22.44A22.47,22.47,0,0,1,123.72,44.89Zm0-39.89a17.45,17.45,0,1,0,17.44,17.45A17.47,17.47,0,0,0,123.72,5Z"/><path class="cls-1" d="M122.64,35.44a2.51,2.51,0,0,1-2.12-3.83l6.72-10.74-12.67-.45a2.5,2.5,0,1,1,.18-5l17,.6a2.5,2.5,0,0,1,2,3.83l-9,14.41A2.51,2.51,0,0,1,122.64,35.44Z"/></g></g></svg>