<svg xmlns="http://www.w3.org/2000/svg" viewBox="0 0 113.94 114.58"><defs><style>.cls-1{fill:#01a3fa;}</style></defs><title>IG FB Ads</title><g id="Layer_2" data-name="Layer 2"><g id="Layer_1-2" data-name="Layer 1"><path class="cls-1" d="M9.32,114.58a9.32,9.32,0,0,1-4.66-1.26A9.22,9.22,0,0,1,0,105.25V9.33A9.22,9.22,0,0,1,4.66,1.26a9.25,9.25,0,0,1,9.32,0L97,49.22a9.32,9.32,0,0,1,0,16.14L14,113.32A9.32,9.32,0,0,1,9.32,114.58ZM9.32,5A4.32,4.32,0,0,0,5,9.33v95.92A4.32,4.32,0,0,0,11.48,109L94.54,61a4.32,4.32,0,0,0,0-7.48l-83.06-48A4.32,4.32,0,0,0,9.32,5Z"/><path class="cls-1" d="M104.62,87.41A9.32,9.32,0,0,1,100,86.15L64,65.36a9.32,9.32,0,0,1,0-16.14l36-20.78a9.32,9.32,0,0,1,14,8.07V78.08a9.35,9.35,0,0,1-9.32,9.33Zm0-55.23a4.23,4.23,0,0,0-2.16.59l-36,20.78a4.32,4.32,0,0,0,0,7.48l36,20.79a4.32,4.32,0,0,0,6.48-3.74V36.51a4.35,4.35,0,0,0-4.32-4.33Z"/></g></g></svg>